<svg id="Layer_1" data-name="Layer 1" xmlns="http://www.w3.org/2000/svg" viewBox="0 0 384 384"><defs><style>.cls-1{fill:#fff;}</style></defs><title>facebook-white</title><path class="cls-1" d="M426.8,64H85.2A21.21,21.21,0,0,0,64,85.2V426.8A21.21,21.21,0,0,0,85.2,448H256V296H210.1V240H256V198.6c0-49.6,34.4-76.6,78.7-76.6,21.2,0,44,1.6,49.3,2.3v51.8H348.7c-24.1,0-28.7,11.4-28.7,28.2V240h57.4l-7.5,56H320V448H426.8A21.21,21.21,0,0,0,448,426.8V85.2A21.21,21.21,0,0,0,426.8,64Z" transform="translate(-64 -64)"/></svg>